HIERARCHY
ROOT Hips
{
	OFFSET 0.00000 0.00000 0.00000
	CHANNELS 6 Xposition Yposition Zposition Zrotation Yrotation Xrotation 
	JOINT LHipJoint
	{
		OFFSET 0 0 0
		CHANNELS 3 Zrotation Yrotation Xrotation
		JOINT LeftUpLeg
		{
			OFFSET 1.75344 -1.53157 0.77399
			CHANNELS 3 Zrotation Yrotation Xrotation
			JOINT LeftLeg
			{
				OFFSET 2.25415 -6.19323 0.00000
				CHANNELS 3 Zrotation Yrotation Xrotation
				JOINT LeftFoot
				{
					OFFSET 2.30342 -6.32861 0.00000
					CHANNELS 3 Zrotation Yrotation Xrotation
					JOINT LeftToeBase
					{
						OFFSET 0.10958 -0.30108 1.49206
						CHANNELS 3 Zrotation Yrotation Xrotation
						End Site
						{
							OFFSET 0.00000 -0.00000 0.77783
						}
					}
				}
			}
		}
	}
	JOINT RHipJoint
	{
		OFFSET 0 0 0
		CHANNELS 3 Zrotation Yrotation Xrotation
		JOINT RightUpLeg
		{
			OFFSET -1.81912 -1.53156 0.77399
			CHANNELS 3 Zrotation Yrotation Xrotation
			JOINT RightLeg
			{
				OFFSET -2.22882 -6.12365 0.00000
				CHANNELS 3 Zrotation Yrotation Xrotation
				JOINT RightFoot
				{
					OFFSET -2.21943 -6.09785 0.00000
					CHANNELS 3 Zrotation Yrotation Xrotation
					JOINT RightToeBase
					{
						OFFSET -0.18931 -0.52012 1.59379
						CHANNELS 3 Zrotation Yrotation Xrotation
						End Site
						{
							OFFSET -0.00000 -0.00000 0.84686
						}
					}
				}
			}
		}
	}
	JOINT LowerBack
	{
		OFFSET 0 0 0
		CHANNELS 3 Zrotation Yrotation Xrotation
		JOINT Spine
		{
			OFFSET -0.00200 1.66634 -0.14248
			CHANNELS 3 Zrotation Yrotation Xrotation
			JOINT Spine1
			{
				OFFSET -0.00875 1.64542 0.09514
				CHANNELS 3 Zrotation Yrotation Xrotation
				JOINT Neck
				{
					OFFSET 0 0 0
					CHANNELS 3 Zrotation Yrotation Xrotation
					JOINT Neck1
					{
						OFFSET 0.02257 1.59605 0.00839
						CHANNELS 3 Zrotation Yrotation Xrotation
						JOINT Head
						{
							OFFSET -0.10214 1.57530 -0.23335
							CHANNELS 3 Zrotation Yrotation Xrotation
							End Site
							{
								OFFSET -0.03588 1.60717 -0.08062
							}
						}
					}
				}
				JOINT LeftShoulder
				{
					OFFSET 0 0 0
					CHANNELS 3 Zrotation Yrotation Xrotation
					JOINT LeftArm
					{
						OFFSET 2.54983 1.10186 0.40078
						CHANNELS 3 Zrotation Yrotation Xrotation
						JOINT LeftForeArm
						{
							OFFSET 4.28840 -0.00000 0.00000
							CHANNELS 3 Zrotation Yrotation Xrotation
							JOINT LeftHand
							{
								OFFSET 3.06552 -0.00000 -0.00000
								CHANNELS 3 Zrotation Yrotation Xrotation
								JOINT LeftFingerBase
								{
									OFFSET 0 0 0
									CHANNELS 3 Zrotation Yrotation Xrotation
									JOINT LeftHandIndex1
									{
										OFFSET 0.75304 -0.00000 0.00000
										CHANNELS 3 Zrotation Yrotation Xrotation
										End Site
										{
											OFFSET 0.60712 -0.00000 0.00000
										}
									}
								}
								JOINT LThumb
								{
									OFFSET 0 0 0
									CHANNELS 3 Zrotation Yrotation Xrotation
									End Site
									{
										OFFSET 0.61639 -0.00000 0.61639
									}
								}
							}
						}
					}
				}
				JOINT RightShoulder
				{
					OFFSET 0 0 0
					CHANNELS 3 Zrotation Yrotation Xrotation
					JOINT RightArm
					{
						OFFSET -2.60909 1.35448 0.21802
						CHANNELS 3 Zrotation Yrotation Xrotation
						JOINT RightForeArm
						{
							OFFSET -4.52172 -0.00000 -0.00000
							CHANNELS 3 Zrotation Yrotation Xrotation
							JOINT RightHand
							{
								OFFSET -2.89140 -0.00000 0.00000
								CHANNELS 3 Zrotation Yrotation Xrotation
								JOINT RightFingerBase
								{
									OFFSET 0 0 0
									CHANNELS 3 Zrotation Yrotation Xrotation
									JOINT RightHandIndex1
									{
										OFFSET -0.68054 -0.00000 0.00000
										CHANNELS 3 Zrotation Yrotation Xrotation
										End Site
										{
											OFFSET -0.54867 -0.00000 0.00000
										}
									}
								}
								JOINT RThumb
								{
									OFFSET 0 0 0
									CHANNELS 3 Zrotation Yrotation Xrotation
									End Site
									{
										OFFSET -0.55705 -0.00000 0.55705
									}
								}
							}
						}
					}
				}
			}
		}
	}
}
MOTION
Frames: 13
Frame Time: .0083333
8.6888 15.1639 42.0971 0 0 0 0 0 0 -21 0 0 0 0 0 0 0 0 0 0 0 0 0 0 21 0 0 0 0 0 0 0 0 0 0 0 0 0 0 0 0 0 0 0 0 0 0 -16 0 0 21 0 0 11 0 0 0 -8 0 0 0 0 0 0 0 0 0 0 0 0 0 0 0 0 0 0 0 0 8 0 0 0 0 0 0 0 0 0 0 0 0 0 0 0 0 0
8.6888 15.1639 42.0971 -179.0070 -16.8198 177.5490 0.0000 0.0000 0.0000 -24.8898 -26.0295 -0.5438 2.4515 9.7492 28.1682 1.4664 -0.3159 -22.8108 5.3294 -13.7454 -42.2269 0.0000 0.0000 0.0000 27.0642 8.9304 0.4384 -1.7984 -8.4329 24.0369 -0.0649 -22.5349 -32.1817 -0.6595 -5.1941 14.4631 3.3001 2.0147 10.4617 -0.0321 3.0529 -0.2822 -2.3564 1.3833 -5.9924 4.6727 10.2359 -6.3946 -1.5896 13.3601 12.1955 -0.3514 6.6006 5.1388 -0.0000 -0.0000 0.0000 -84.8183 10.9848 40.4417 22.0053 -32.9830 -6.5887 -0.0000 -0.0000 15.1550 3.3541 -39.8924 -2.1526 -7.1250 0.0000 -0.0000 -16.3093 -8.5586 19.2953 -0.0000 -0.0000 0.0000 83.4467 -11.4994 51.6530 -19.0753 29.5121 -5.0679 0.0000 0.0000 11.7121 -3.6606 -57.2406 3.0796 7.1250 -0.0000 -0.0000 84.5269 -73.4149 -67.0521
8.6924 15.1719 42.0902 -179.4400 -16.6798 177.8880 0.0000 0.0000 0.0000 -25.1845 -25.7725 -0.6530 2.3824 9.6209 27.7577 1.4389 -0.2397 -22.6191 2.1630 -9.1976 -26.4154 0.0000 0.0000 0.0000 26.6170 9.1644 0.1268 -1.8490 -8.5442 24.3796 -0.1429 -22.3441 -32.4204 -0.5782 -4.8691 13.5357 2.6777 2.0827 10.1624 -0.1106 3.0611 -0.3707 -2.0799 1.4085 -5.9440 4.6954 10.2659 -6.4168 -1.4311 13.3736 12.4019 -0.2991 6.6141 5.1979 0.0000 0.0000 0.0000 -84.7440 11.1036 40.6863 22.1516 -33.1479 -6.6686 -0.0000 -0.0000 14.7134 3.1874 -39.7185 -2.0380 -7.1250 0.0000 -0.0000 -16.3812 -8.3741 19.3428 0.0000 0.0000 0.0000 83.4143 -11.6255 51.9513 -18.9862 29.4015 -5.0241 0.0000 0.0000 12.4071 -7.6028 -57.4160 6.4170 7.1250 -0.0000 -0.0000 84.6573 -74.7956 -68.7701
8.6981 15.1741 42.0825 -179.4410 -16.4815 178.0500 0.0000 0.0000 0.0000 -25.0716 -25.6367 -0.7999 2.3636 9.5856 27.6451 1.4156 0.0554 -22.5311 2.3528 -9.5652 -27.5797 0.0000 0.0000 0.0000 26.6496 9.4257 0.0413 -1.8555 -8.5584 24.4234 -0.1628 -22.4464 -32.6798 -0.5727 -4.8464 13.4710 2.4647 2.1662 9.9322 -0.0655 3.1473 -0.4307 -1.9168 1.4602 -5.8867 4.6107 10.2793 -6.5235 -1.2290 13.3701 12.5295 -0.2176 6.6189 5.2354 -0.0000 0.0000 0.0000 -84.7419 11.1111 40.7373 22.1960 -33.1978 -6.6928 -0.0000 -0.0000 14.3727 2.9712 -39.9998 -1.9109 -7.1250 0.0000 -0.0000 -16.5073 -8.6194 19.5637 -0.0000 0.0000 0.0000 83.4051 -11.6606 52.1038 -18.8974 29.2909 -4.9805 0.0000 0.0000 12.9202 -8.7313 -57.9917 7.4200 7.1250 -0.0000 -0.0000 86.8021 -75.1860 -71.3830
8.7039 15.1753 42.0752 -179.4230 -16.3177 178.1450 0.0000 0.0000 0.0000 -24.9858 -25.5774 -0.7929 2.3345 9.5307 27.4699 1.4160 0.0816 -22.5431 2.3487 -9.5575 -27.5552 0.0000 0.0000 0.0000 26.7146 9.6424 0.0115 -1.8630 -8.5747 24.4738 -0.2003 -22.5479 -33.0443 -0.5618 -4.8008 13.3412 2.2819 2.2328 9.7549 -0.0139 3.2143 -0.4407 -1.7620 1.5017 -5.8068 4.4933 10.2900 -6.6930 -1.0601 13.3711 12.5848 -0.1394 6.6239 5.2609 0.0000 0.0000 0.0000 -84.7637 11.0757 40.7680 22.2555 -33.2646 -6.7255 -0.0000 -0.0000 14.0722 2.8013 -40.3003 -1.8127 -7.1250 0.0000 -0.0000 -16.6112 -8.8879 19.7625 0.0000 0.0000 0.0000 83.3744 -11.5788 52.2659 -18.8216 29.1964 -4.9435 0.0000 0.0000 13.1926 -8.7887 -58.0523 7.4739 7.1250 -0.0000 -0.0000 87.0350 -75.2039 -71.6402
8.7135 15.1823 42.0642 -179.4960 -16.0966 178.5080 0.0000 0.0000 0.0000 -24.8438 -25.5539 -1.1081 2.3205 9.5040 27.3850 1.4356 0.0308 -22.6824 2.2433 -9.3555 -26.9138 0.0000 0.0000 0.0000 26.6749 10.0392 -0.1792 -1.8584 -8.5648 24.4430 -0.2508 -22.6456 -33.4771 -0.5208 -4.6252 12.8427 1.9249 2.3345 9.2765 0.0187 3.3054 -0.5060 -1.5197 1.5629 -5.6234 4.5079 10.2987 -6.7667 -1.0377 13.3766 12.5953 -0.1299 6.6285 5.2761 -0.0000 0.0000 0.0000 -84.7457 11.1432 41.0568 22.2853 -33.2979 -6.7418 -0.0000 -0.0000 14.4996 4.6310 -39.9926 -2.9801 -7.1250 0.0000 -0.0000 -15.6784 -8.8018 18.5476 -0.0000 0.0000 0.0000 83.3683 -11.4629 52.2864 -18.8242 29.1996 -4.9448 0.0000 0.0000 13.1674 -10.6466 -57.2550 8.9848 7.1250 -0.0000 -0.0000 83.9685 -75.8652 -69.2836
8.7236 15.1981 42.0508 -179.5200 -15.8967 179.2740 0.0000 0.0000 0.0000 -24.4324 -25.6687 -1.9199 2.3056 9.4755 27.2944 1.4345 0.0610 -22.6836 2.4561 -9.7577 -28.1957 0.0000 0.0000 0.0000 26.6266 10.6974 -0.7717 -1.8569 -8.5614 24.4328 -0.1875 -22.8119 -33.3116 -0.4487 -4.2974 11.9149 1.5706 2.4362 8.3264 0.0614 3.3978 -0.6826 -1.2478 1.6280 -5.2919 4.6388 10.3162 -6.7663 -1.1583 13.4013 12.6118 -0.1817 6.6384 5.2994 -0.0000 -0.0000 0.0000 -84.7774 11.0988 41.2561 22.2146 -33.2187 -6.7030 -0.0000 -0.0000 14.7898 5.7276 -39.6508 -3.6620 -7.1250 0.0000 -0.0000 -15.1009 -8.6088 17.7738 -0.0000 -0.0000 0.0000 83.4657 -11.2341 51.6022 -18.9898 29.4059 -5.0258 0.0000 0.0000 12.0243 -12.6776 -56.1629 10.5836 7.1250 -0.0000 -0.0000 79.4675 -76.5615 -65.6043
8.7250 15.1985 42.0507 -179.5850 -15.8731 179.3040 0.0000 0.0000 0.0000 -24.4831 -25.6502 -1.8984 2.2915 9.4486 27.2089 1.4342 -0.0382 -22.6477 2.7004 -10.1935 -29.6057 0.0000 0.0000 0.0000 26.5959 10.8547 -0.7310 -1.8598 -8.5677 24.4522 -0.2181 -22.6950 -33.3441 -0.4579 -4.3409 12.0378 1.4291 2.4468 8.3143 0.0731 3.3984 -0.6873 -1.1564 1.6325 -5.2988 4.6296 10.3407 -6.8156 -1.1540 13.4341 12.6278 -0.1733 6.6540 5.3126 -0.0000 -0.0000 0.0000 -84.8985 10.8833 41.2200 22.0542 -33.0383 -6.6154 -0.0000 -0.0000 14.6459 5.5735 -39.9048 -3.5821 -7.1250 0.0000 -0.0000 -15.1991 -8.8331 17.9474 -0.0000 -0.0000 0.0000 83.4868 -11.0452 51.3024 -19.0119 29.4335 -5.0367 0.0000 0.0000 11.9911 -13.6700 -55.5849 11.3456 7.1250 -0.0000 -0.0000 76.9516 -76.8821 -63.5111
8.7245 15.1973 42.0517 -179.6860 -15.8899 179.2940 0.0000 0.0000 0.0000 -24.6097 -25.6468 -1.8104 2.2805 9.4274 27.1416 1.4397 -0.2000 -22.6384 2.6373 -10.0834 -29.2472 0.0000 0.0000 0.0000 26.4992 10.8427 -0.7033 -1.8658 -8.5808 24.4925 -0.2453 -22.5670 -33.3431 -0.4633 -4.3658 12.1082 1.3135 2.4300 8.3664 0.0478 3.3636 -0.6791 -1.1161 1.6179 -5.3256 4.5333 10.3821 -6.8499 -1.0295 13.4851 12.5466 -0.1193 6.6845 5.2789 -0.0000 -0.0000 0.0000 -84.9293 10.8299 41.4143 21.9490 -32.9193 -6.5581 -0.0000 -0.0000 15.1510 7.3734 -39.5995 -4.7154 -7.1250 0.0000 -0.0000 -14.2651 -8.7759 16.7630 -0.0000 -0.0000 0.0000 83.4892 -10.9067 51.4090 -18.9622 29.3716 -5.0123 0.0000 0.0000 11.9032 -13.2811 -55.8859 11.0576 7.1250 -0.0000 -0.0000 78.2679 -76.7643 -64.6582
8.7216 15.1963 42.0518 -179.7090 -15.8972 179.2180 0.0000 0.0000 0.0000 -24.6844 -25.5687 -1.7243 2.2768 9.4203 27.1192 1.4331 -0.0679 -22.6291 2.7351 -10.2534 -29.8013 0.0000 0.0000 0.0000 26.4351 10.6280 -0.7311 -1.8763 -8.6035 24.5626 -0.2561 -22.4967 -33.3172 -0.4236 -4.1773 11.5759 1.3427 2.4106 8.4352 0.0271 3.3399 -0.6604 -1.1537 1.6046 -5.3426 4.6058 10.3708 -6.8061 -1.1428 13.4799 12.3990 -0.1706 6.6807 5.2383 -0.0000 0.0000 0.0000 -84.9125 10.8733 41.6418 21.9573 -32.9287 -6.5626 -0.0000 -0.0000 15.5834 8.6682 -38.8993 -5.4685 -7.1250 0.0000 -0.0000 -13.5392 -8.2828 15.7640 -0.0000 0.0000 0.0000 83.5124 -10.8537 51.5953 -18.9053 29.3009 -4.9844 0.0000 0.0000 11.4136 -13.3119 -55.9822 11.0958 7.1250 -0.0000 -0.0000 78.6805 -76.7830 -65.0809
8.7194 15.1965 42.0522 -179.6800 -15.8933 179.2110 0.0000 0.0000 0.0000 -24.6908 -25.6294 -1.6866 2.2762 9.4191 27.1153 1.4225 0.2358 -22.6478 2.8902 -10.5152 -30.6616 0.0000 0.0000 0.0000 26.4224 10.4826 -0.8386 -1.8847 -8.6217 24.6189 -0.2752 -22.4447 -33.3658 -0.4366 -4.2399 11.7526 1.4326 2.3948 8.4263 0.0247 3.3280 -0.6707 -1.2048 1.5961 -5.3435 4.6602 10.3139 -6.7583 -1.2425 13.4126 12.2735 -0.2197 6.6462 5.2000 -0.0000 0.0000 0.0000 -84.9393 10.8550 41.7212 22.0137 -32.9925 -6.5933 -0.0000 -0.0000 15.5069 8.2302 -38.4747 -5.1422 -7.1250 0.0000 -0.0000 -13.7239 -7.8104 15.8946 -0.0000 0.0000 0.0000 83.5227 -10.8532 51.6238 -18.8899 29.2816 -4.9769 0.0000 0.0000 11.2375 -13.4123 -55.9689 11.1788 7.1250 -0.0000 -0.0000 78.6208 -76.8191 -65.0625
8.7199 15.1953 42.0530 -179.5910 -15.8689 179.1950 0.0000 0.0000 0.0000 -24.6256 -25.7421 -1.6320 2.2769 9.4204 27.1194 1.4185 0.3363 -22.6518 2.8423 -10.4353 -30.3981 0.0000 0.0000 0.0000 26.5132 10.4788 -0.8893 -1.8907 -8.6347 24.6591 -0.3040 -22.4061 -33.4901 -0.4836 -4.4595 12.3732 1.5436 2.3908 8.4297 0.0390 3.3350 -0.6869 -1.2534 1.5964 -5.3568 4.5400 10.2899 -6.7402 -1.0929 13.3760 12.1528 -0.1660 6.6349 5.1396 0.0000 0.0000 0.0000 -84.9431 10.8231 41.8758 22.0900 -33.0785 -6.6349 -0.0000 -0.0000 15.3864 7.8885 -38.1060 -4.8872 -7.1250 0.0000 -0.0000 -13.8670 -7.4070 15.9858 0.0000 0.0000 0.0000 83.5222 -10.8251 51.5955 -18.9308 29.3326 -4.9969 0.0000 0.0000 11.0430 -13.2289 -56.0270 11.0316 7.1250 -0.0000 -0.0000 78.8746 -76.7554 -65.2397
8.7211 15.1930 42.0527 -179.5730 -15.8431 179.1560 0.0000 0.0000 0.0000 -24.6202 -25.7135 -1.5937 2.2781 9.4227 27.1268 1.4250 0.2587 -22.6763 2.8605 -10.4658 -30.4986 0.0000 0.0000 0.0000 26.5414 10.5034 -0.8635 -1.8954 -8.6447 24.6902 -0.3048 -22.4825 -33.5919 -0.5198 -4.6205 12.8293 1.5433 2.3893 8.4775 0.0555 3.3343 -0.6801 -1.2382 1.5958 -5.3776 4.4051 10.3025 -6.8244 -0.9546 13.3893 12.1195 -0.1013 6.6449 5.1245 -0.0000 0.0000 0.0000 -84.9878 10.7711 41.9646 22.1289 -33.1224 -6.6562 -0.0000 -0.0000 15.3835 8.1214 -38.3562 -5.0605 -7.1250 0.0000 -0.0000 -13.7691 -7.6808 15.9232 -0.0000 0.0000 0.0000 83.4962 -10.7443 51.5985 -18.9743 29.3867 -5.0182 0.0000 0.0000 10.7072 -13.0291 -56.0961 10.8717 7.1250 -0.0000 -0.0000 79.1750 -76.6864 -65.4567
